<svg width="602" height="325" viewBox="0 0 602 325" fill="none" xmlns="http://www.w3.org/2000/svg">
<mask id="path-1-outside-1" maskUnits="userSpaceOnUse" x="0" y="0" width="602" height="325" fill="black">
<rect fill="white" width="602" height="325"/>
<path d="M119.632 123.634C124.717 124.103 128.839 124.426 131.995 124.602V11.3808C128.195 11.674 124.075 12.1725 119.632 12.8763V123.634ZM200.912 83.6065C202.373 78.5627 203.104 72.3167 203.104 64.8681C203.104 57.361 201.526 50.0007 198.369 42.787C195.213 35.5147 190.858 29.4445 185.305 24.5767C173.906 14.6065 159.205 10.1492 141.202 11.2048V124.602C158.27 125.129 172.796 119.969 184.779 109.118C192.553 102.14 197.931 93.6351 200.912 83.6065ZM110.513 14.4598L96.8352 17.8907C95.4906 17.8907 94.4092 17.4216 93.5908 16.4832C92.7724 15.4862 92.3634 14.4305 92.3634 13.3162C92.3634 10.9703 93.3861 9.50405 95.4323 8.91756C95.6657 8.85891 96.9519 8.47768 99.2899 7.7739C101.687 7.01147 104.872 6.21972 108.847 5.39865C119.252 3.16999 129.657 2.05567 140.062 2.05567C150.525 2.05567 160.14 3.43391 168.909 6.1904C177.677 8.88823 185.276 12.9643 191.706 18.4186C205.442 30.0897 212.31 46.482 212.31 67.5954C212.31 81.5535 208.715 93.7527 201.526 104.192C194.92 113.752 185.655 121.171 173.731 126.449C162.216 131.434 149.502 133.927 135.59 133.927C121.444 133.927 108.584 131.992 97.0102 128.121C94.9645 127.3 93.9414 126.038 93.9414 124.338C93.9414 122.637 94.4383 121.347 95.4323 120.467C96.4257 119.587 97.5072 119.147 98.6762 119.147L110.513 122.226V14.4598ZM263.779 53.432C260.798 53.9009 256.794 54.1355 251.767 54.1355H251.065V120.379C252.176 120.262 253.257 120.203 254.31 120.203C256.414 120.203 258.255 120.203 259.834 120.203C261.412 120.203 262.727 120.262 263.779 120.379V53.432ZM262.727 16.6592C262.727 14.841 262.084 13.3162 260.798 12.0846C259.57 10.7943 258.05 10.1492 256.239 10.1492C254.426 10.1492 252.907 10.7943 251.679 12.0846C250.451 13.3162 249.838 14.841 249.838 16.6592C249.838 18.4772 250.451 20.0021 251.679 21.2337C252.907 22.4653 254.426 23.0812 256.239 23.0812C258.05 23.0812 259.57 22.4653 260.798 21.2337C262.084 20.0021 262.727 18.4772 262.727 16.6592ZM284.647 132.343C275.002 130.408 266 129.44 257.641 129.44C249.282 129.44 240.281 130.408 230.636 132.343C229.291 132.343 228.181 131.845 227.304 130.848C226.486 129.851 226.076 128.795 226.076 127.681C226.076 126.566 226.398 125.569 227.041 124.69C227.742 123.81 228.853 123.223 230.373 122.93C231.951 122.578 233.763 122.285 235.809 122.05C237.913 121.757 239.959 121.464 241.947 121.171V53.7837L228.444 52.6401C227.275 52.464 226.31 51.9361 225.55 51.0564C224.849 50.1768 224.498 49.0917 224.498 47.8017C224.498 46.4527 225.024 45.3969 226.076 44.6344C227.128 43.872 228.152 43.4908 229.145 43.4908H229.671C229.73 43.4908 230.402 43.5788 231.688 43.7547C232.974 43.872 234.64 44.0187 236.686 44.1946C242.239 44.6636 247.324 44.8983 251.942 44.8983C258.372 44.8983 263.574 44.4292 267.549 43.4908H268.514C269.858 43.4908 270.969 43.96 271.845 44.8983C272.723 45.778 273.161 46.8045 273.161 47.9774L272.985 121.171C275.031 121.464 277.077 121.757 279.123 122.05C281.228 122.285 283.098 122.578 284.735 122.93C287.774 123.516 289.294 125.071 289.294 127.593C289.294 128.942 288.797 130.056 287.803 130.936C286.81 131.874 285.758 132.343 284.647 132.343ZM271.933 16.6592C271.933 21.0578 270.413 24.7526 267.374 27.7437C264.217 30.7934 260.506 32.3183 256.239 32.3183C251.913 32.3183 248.23 30.7934 245.191 27.7437C242.151 24.694 240.631 20.9991 240.631 16.6592C240.631 12.3192 242.151 8.62429 245.191 5.57458C248.23 2.52486 251.913 1 256.239 1C260.506 1 264.217 2.52486 267.374 5.57458C270.413 8.56564 271.933 12.2605 271.933 16.6592ZM332.345 54.3116C329.364 54.7805 325.36 55.0152 320.333 55.0152H319.632V121.171C322.554 121.171 325.068 121.171 327.172 121.171C329.335 121.171 331.059 121.229 332.345 121.347V54.3116ZM320.508 45.6023C326.821 45.6023 332.316 45.133 336.993 44.1946C338.337 44.1946 339.447 44.6929 340.324 45.6901C341.26 46.6284 341.727 47.6842 341.727 48.857V57.9182C348.566 47.831 357.948 42.787 369.873 42.787C381.855 42.787 389.659 50.1768 393.283 64.956C394.569 69.9998 395.212 74.8972 395.212 79.6478C395.212 84.3984 395.066 88.5328 394.774 92.0519C394.481 95.512 394.102 98.9722 393.634 102.433C392.816 109.294 391.793 115.218 390.565 120.203C392.786 120.32 395.066 120.438 397.404 120.555C399.801 120.672 401.935 120.819 403.805 120.995C407.195 121.405 408.891 123.135 408.891 126.185C408.773 127.358 408.248 128.355 407.312 129.176C406.377 129.939 405.325 130.32 404.156 130.32H403.805C398.194 129.734 392.056 129.44 385.392 129.44C378.787 129.44 372.591 130.085 366.804 131.375C365.576 131.375 364.495 130.907 363.56 129.968C362.624 128.971 362.157 127.915 362.157 126.801C362.157 125.687 362.508 124.69 363.209 123.81C363.969 122.93 365.225 122.344 366.979 122.05C369.61 121.522 374.286 120.965 381.008 120.379C382.937 113.693 384.252 106.421 384.954 98.5618C385.655 90.6443 386.006 85.2488 386.006 82.3746C386.006 62.0823 380.628 51.9361 369.873 51.9361C362.157 51.9361 355.464 55.4845 349.794 62.5809C344.416 69.2084 341.727 76.1286 341.727 83.3426V83.5182L341.552 122.226C342.604 122.344 343.627 122.461 344.621 122.578C345.614 122.637 346.637 122.754 347.69 122.93C348.8 123.048 349.735 123.546 350.495 124.426C351.314 125.247 351.723 126.273 351.723 127.505C351.723 128.736 351.226 129.821 350.232 130.76C349.297 131.698 348.479 132.167 347.777 132.167C347.075 132.167 346.666 132.079 346.55 131.903C336.028 130.848 328.779 130.32 324.805 130.32C317.03 130.32 310.893 130.73 306.392 131.552C301.891 132.431 299.202 132.871 298.325 132.871C297.507 132.871 296.689 132.373 295.87 131.375C295.052 130.379 294.643 129.323 294.643 128.208C294.643 127.094 294.964 126.097 295.607 125.217C296.25 124.338 297.39 123.751 299.027 123.458C302.3 122.813 306.099 122.285 310.425 121.875V54.6634C302.592 54.3116 298.121 53.9009 297.01 53.432C295.841 53.3144 294.876 52.8158 294.117 51.9361C293.415 51.0564 293.064 49.9714 293.064 48.6814C293.064 47.3909 293.561 46.3351 294.555 45.514C295.549 44.6344 296.367 44.1946 297.01 44.1946C297.712 44.1946 298.091 44.2239 298.15 44.2826C298.267 44.3412 298.968 44.4292 300.254 44.5465C301.54 44.6636 303.206 44.8105 305.252 44.9866C310.104 45.3969 315.189 45.6023 320.508 45.6023ZM448.172 50.8803C437.708 54.9274 430.811 62.5223 427.479 73.6653C426.31 77.5362 425.725 81.9057 425.725 86.7734C425.725 91.6411 426.281 96.0107 427.391 99.8811C428.502 103.752 429.992 107.154 431.863 110.086C435.487 115.54 440.514 119.587 446.944 122.226C441.099 114.074 438.176 102.11 438.176 86.3334C438.176 70.5569 441.508 58.7393 448.172 50.8803ZM492.8 112.637C495.547 109.118 497.622 105.101 499.027 100.585C500.486 96.0692 501.217 91.9051 501.217 88.0932C501.217 84.2808 500.899 80.9085 500.252 77.9763C499.61 75.0436 498.676 72.1992 497.446 69.4426C496.221 66.6865 494.73 64.1056 492.975 61.7012C491.224 59.2964 489.263 57.1853 487.103 55.367C482.367 51.5551 477.195 49.6489 471.584 49.6489C460.244 49.6489 452.846 56.3349 449.399 69.7066C448.113 74.6332 447.47 79.2077 447.47 83.4304C447.47 87.5945 447.587 91.1425 447.821 94.0752C448.054 96.9489 448.464 99.8226 449.048 102.696C449.631 105.511 450.422 108.239 451.414 110.878C452.41 113.517 453.694 115.834 455.274 117.828C458.722 122.168 463.135 124.338 468.513 124.338C473.95 124.338 478.654 123.282 482.632 121.171C486.663 119.001 490.053 116.156 492.8 112.637ZM510.335 87.1252C510.335 93.8698 509.078 100.175 506.569 106.039C504.055 111.904 500.661 116.948 496.396 121.171C487.337 130.027 476.347 134.454 463.427 134.454C449.224 134.454 437.854 130.115 429.32 121.435C420.844 112.813 416.606 101.23 416.606 86.6856C416.606 72.9032 421.107 61.4666 430.109 52.3762C438.994 43.3442 450.098 38.8283 463.427 38.8283C476.989 38.8283 488.27 43.5788 497.271 53.0797C505.981 62.2291 510.335 73.5775 510.335 87.1252ZM41.1578 202.895C40.281 205.651 39.638 208.613 39.2288 211.78C38.8781 214.947 38.5273 217.762 38.1766 220.225L80.5262 303.272C81.3445 301.043 82.2217 298.462 83.1569 295.53L86.3132 286.205L41.1578 202.895ZM144.445 307.23C148.888 306.879 153.389 306.585 157.948 306.351C156.312 282.187 152.366 250.811 146.111 212.22C145.41 207.88 144.855 204.596 144.445 202.367C140.12 202.719 135.327 203.012 130.066 203.247C137.49 234.565 142.283 269.226 144.445 307.23ZM164.174 191.018L164.963 190.843C166.307 190.843 167.418 191.341 168.295 192.338C169.171 193.276 169.61 194.332 169.61 195.505C169.61 196.678 169.23 197.704 168.47 198.584C167.768 199.405 166.892 199.904 165.84 200.08C163.619 200.432 159.614 200.96 153.828 201.663C154.178 204.126 154.704 207.587 155.406 212.044C156.166 216.443 156.955 221.516 157.773 227.263C158.65 232.952 159.556 239.139 160.491 245.825C161.426 252.511 162.332 259.315 163.209 266.235C165.08 281.191 166.366 294.445 167.067 305.999C170.399 305.999 173.292 305.999 175.748 305.999C178.261 305.999 180.219 306.028 181.622 306.087C183.025 306.145 184.136 306.615 184.954 307.494C185.831 308.315 186.269 309.4 186.269 310.749C186.269 312.039 185.802 313.125 184.866 314.004C183.989 314.884 182.85 315.295 181.447 315.236C180.044 315.177 178.583 315.148 177.063 315.148C175.543 315.148 174.023 315.148 172.503 315.148C156.136 315.148 139.769 316.585 123.402 319.459H122.525C121.181 319.459 120.1 318.989 119.281 318.051C118.463 317.172 118.054 316.174 118.054 315.06C118.054 313.946 118.375 312.948 119.018 312.069C119.72 311.189 120.918 310.603 122.613 310.309C126.471 309.547 130.709 308.873 135.327 308.286C132.872 271.162 128.663 239.286 122.701 212.66C114.05 233.832 103.119 264.329 89.9082 304.151C89.9082 304.151 88.9435 307.084 87.0149 312.948C86.2549 315.177 85.8751 316.35 85.8751 316.468C85.2901 318.462 83.8581 319.459 81.5784 319.459C79.591 319.459 78.2173 318.696 77.4577 317.172L34.9324 233.773C30.373 268.2 27.8011 292.627 27.2165 307.055C37.8551 307.524 43.9343 308.726 45.4541 310.661C46.0972 311.482 46.4186 312.567 46.4186 313.916C46.4186 315.207 45.8925 316.233 44.8403 316.995C43.7882 317.699 42.8237 318.051 41.9469 318.051H40.9824C34.2018 316.761 27.8011 316.116 21.7803 316.116C15.7596 316.116 10.6156 316.526 6.34851 317.347H5.64706C4.30264 317.347 3.19202 316.878 2.31521 315.94C1.4384 315.001 1 313.946 1 312.773C1 310.192 2.25676 308.638 4.77027 308.11C7.98525 307.582 12.34 307.172 17.8347 306.879C18.8284 282.187 22.3649 253.215 28.4441 219.961C29.7301 212.748 31.1622 205.68 32.7404 198.76C25.7844 198.525 19.3837 197.587 13.5384 195.945C11.2586 195.3 10.1188 194.068 10.1188 192.25C10.1188 190.432 10.5864 189.083 11.5217 188.203C12.5154 187.323 13.363 186.884 14.0644 186.884H15.3796C15.555 186.884 16.5195 187.119 18.2731 187.587C23.1832 188.936 28.8532 189.611 35.2831 189.611L41.5962 189.435C43.2913 189.435 44.665 190.197 45.7169 191.722L90.4344 274.241C104.931 231.603 114.868 205.68 120.246 196.473C121.122 195.007 122.438 194.273 124.191 194.273L164.174 191.018ZM254.31 287.085C254.076 285.091 253.959 282.979 253.959 280.751H250.715C241.128 280.751 231.717 282.51 222.481 286.029C210.674 290.486 204.77 296.85 204.77 305.119C204.77 308.169 206.143 310.544 208.891 312.245C211.171 313.594 214.152 314.268 217.834 314.268C221.517 314.268 225.199 313.476 228.882 311.893C232.623 310.251 236.072 308.139 239.228 305.559C244.84 300.867 249.867 294.709 254.31 287.085ZM275.44 308.902C275.616 307.143 275.704 303.623 275.704 298.345C275.704 293.067 275.587 288.052 275.353 283.302C275.177 278.493 274.739 273.86 274.038 269.402C273.336 264.945 272.284 260.751 270.881 256.822C269.478 252.893 267.578 249.491 265.182 246.617C259.863 240.283 252.468 237.116 242.999 237.116C242.823 237.116 242.677 237.175 242.56 237.292C242.444 237.351 242.297 237.38 242.122 237.38H242.473C251.884 242.482 257.992 250.957 260.798 262.804C262.376 269.314 263.224 275.501 263.341 281.366C263.516 287.173 263.604 291.747 263.604 295.09C263.604 300.369 263.37 305.676 262.902 311.013C267.111 310.133 271.29 309.43 275.44 308.902ZM290.171 307.934L296.484 308.11C297.77 308.228 298.793 308.726 299.553 309.606C300.371 310.486 300.78 311.571 300.78 312.861C300.78 314.093 300.342 315.177 299.465 316.116C298.647 317.054 297.594 317.523 296.309 317.523H295.958C294.964 317.406 293.941 317.347 292.889 317.347H289.82C279.123 317.347 268.777 318.784 258.781 321.658L257.553 321.834C256.209 321.834 255.099 321.306 254.222 320.25C253.404 319.253 252.994 318.227 252.994 317.172V316.468C252.994 316.35 253.141 315.177 253.433 312.948C253.725 310.661 254.017 307.494 254.31 303.448C242.444 316.761 230.11 323.418 217.308 323.418C211.404 323.418 206.377 321.775 202.227 318.491C197.784 315.031 195.563 310.837 195.563 305.911C195.563 300.984 196.499 296.85 198.369 293.507C200.298 290.164 202.812 287.26 205.91 284.797C209.008 282.276 212.515 280.193 216.431 278.551C220.406 276.85 224.439 275.472 228.531 274.417C236.13 272.54 243.525 271.602 250.715 271.602H252.819C252.819 264.153 250.451 257.643 245.717 252.071C240.69 246.207 234.582 243.274 227.392 243.274C222.014 243.274 216.987 246.031 212.31 251.544C207.751 256.881 205.471 262.482 205.471 268.346C205.471 269.519 204.974 270.517 203.981 271.338C203.045 272.1 201.964 272.481 200.737 272.481C199.509 272.481 198.428 272.012 197.492 271.074C196.557 270.077 196.089 268.581 196.089 266.587C196.089 264.593 196.586 262.071 197.58 259.021C198.574 255.913 200.006 252.893 201.876 249.96C203.805 246.969 206.114 244.154 208.803 241.515C211.55 238.875 214.678 236.53 218.185 234.477C225.667 230.137 233.266 227.967 240.982 227.967C248.756 227.967 254.952 228.993 259.57 231.046C264.246 233.099 268.134 235.885 271.232 239.403C274.388 242.923 276.873 246.998 278.685 251.632C280.497 256.265 281.87 261.162 282.806 266.323C284.267 274.417 284.998 284.768 284.998 297.377L284.823 308.11L290.171 307.934ZM345.059 312.861C341.084 309.4 339.097 305.06 339.097 299.841V198.936L326.558 202.543V289.372C326.558 302.157 330.475 309.664 338.307 311.893C340.529 312.48 342.779 312.802 345.059 312.861ZM348.303 229.023C355.552 228.788 362.829 228.378 370.136 227.791H370.486C371.773 227.791 372.854 228.26 373.731 229.199C374.608 230.078 375.046 231.105 375.046 232.278C375.046 233.451 374.637 234.506 373.818 235.445C373.058 236.324 372.094 236.823 370.925 236.94C361.982 237.644 354.441 238.084 348.303 238.26V299.841C348.303 303.359 350.086 305.852 353.652 307.318C354.645 307.729 355.785 307.934 357.071 307.934C358.416 307.934 359.585 307.524 360.579 306.702C361.63 305.823 362.508 304.738 363.209 303.448C364.144 301.747 364.904 299.753 365.488 297.466C366.365 293.888 368.031 292.099 370.486 292.099C371.831 292.099 372.912 292.627 373.731 293.683C374.608 294.68 375.046 295.706 375.046 296.762V297.729C373.351 305.53 370.019 311.571 365.05 315.852C360.082 320.075 353.944 322.186 346.637 322.186C333.427 322.186 324.512 316.761 319.895 305.911C318.082 301.688 317.177 296.175 317.177 289.372V238.084C314.546 237.908 311.886 237.732 309.198 237.556C306.567 237.38 304.287 237.175 302.358 236.94C298.851 236.588 297.097 235.034 297.097 232.278C297.097 230.929 297.594 229.844 298.588 229.023C299.64 228.201 300.692 227.791 301.745 227.791H302.095L317.177 228.847V198.936C317.177 197.939 317.498 197.03 318.141 196.209C318.784 195.329 319.603 194.743 320.596 194.45L342.516 188.555C342.75 188.379 343.335 188.291 344.27 188.291C345.264 188.291 346.169 188.79 346.988 189.787C347.865 190.784 348.303 191.869 348.303 193.042V229.023ZM420.464 311.541C412.69 303.389 408.803 291.923 408.803 277.144C408.803 267.877 410.323 258.992 413.362 250.488C416.343 242.336 419.733 236.999 423.533 234.477C404.945 239.052 395.651 252.922 395.651 276.088C395.651 289.753 400.385 299.899 409.855 306.527C412.953 308.696 416.49 310.368 420.464 311.541ZM471.669 259.461C471.494 260.634 470.937 261.602 470.004 262.364C469.128 263.127 468.105 263.508 466.933 263.508C465.766 263.508 464.742 263.097 463.867 262.276C463.05 261.455 462.61 260.106 462.551 258.23C462.493 256.294 461.937 253.948 460.886 251.192C459.831 248.435 458.399 245.913 456.59 243.626C452.379 238.348 447.821 235.709 442.911 235.709C436.89 235.709 431.804 238.23 427.654 243.274C422.686 249.315 419.617 257.966 418.448 269.226C418.097 272.217 417.922 275.355 417.922 278.639C417.922 281.865 418.36 285.53 419.237 289.636C420.172 293.741 421.575 297.407 423.446 300.633C427.654 308.022 433.529 311.717 441.07 311.717C446.681 311.717 451.827 309.313 456.5 304.503C460.769 300.105 463.602 295.207 465.007 289.812C465.649 287.29 467.139 286.029 469.478 286.029C470.762 286.029 471.844 286.528 472.724 287.524C473.658 288.463 474.125 289.314 474.125 290.076C474.125 290.838 473.977 291.776 473.685 292.891C473.451 293.947 472.841 295.618 471.844 297.905C470.852 300.193 469.537 302.48 467.898 304.767C466.322 307.055 464.392 309.283 462.112 311.453C459.831 313.565 457.232 315.441 454.309 317.083C447.821 320.72 440.923 322.538 433.616 322.538C426.368 322.538 419.909 321.394 414.239 319.107C408.569 316.878 403.688 313.711 399.596 309.606C390.887 300.984 386.532 289.812 386.532 276.088C386.532 260.839 390.507 248.494 398.457 239.052C406.757 229.14 418.097 224.184 432.477 224.184C439.141 224.184 445.337 225.533 451.064 228.231C456.792 230.87 461.501 234.858 465.182 240.195L468.073 222.249C468.248 221.134 468.747 220.225 469.564 219.522C470.444 218.818 471.526 218.466 472.809 218.466C474.098 218.466 475.148 218.965 475.965 219.961C476.782 220.959 477.195 221.955 477.195 222.953V223.656L471.669 259.461ZM521.998 202.367C519.017 202.836 514.986 203.071 509.9 203.071H509.199V306.879C510.308 306.761 511.39 306.702 512.441 306.702C514.546 306.702 516.387 306.702 517.967 306.702C519.543 306.702 520.889 306.761 521.998 306.879V202.367ZM531.291 241.691C537.957 231.369 547.048 226.207 558.563 226.207C569.903 226.207 578.32 230.342 583.815 238.612C588.547 245.649 590.917 255.033 590.917 266.763C590.917 278.434 589.368 291.63 586.271 306.351C589.952 306.351 592.933 306.527 595.213 306.879C599.07 307.465 601 309.078 601 311.717C601 313.007 600.502 314.122 599.51 315.06C598.513 315.998 597.669 316.468 596.964 316.468C596.264 316.468 595.388 316.35 594.333 316.116C587.029 314.767 577.557 315.119 565.925 317.172C565.809 317.289 565.692 317.347 565.575 317.347C565.459 317.347 565.019 317.347 564.26 317.347C563.56 317.347 562.77 316.878 561.894 315.94C561.014 314.943 560.579 313.887 560.579 312.773C560.579 310.192 561.836 308.638 564.35 308.11C568.498 307.23 572.677 306.702 576.888 306.527C580.103 291.689 581.71 279.021 581.71 268.523C581.71 252.746 577.822 242.57 570.047 237.996C567.066 236.236 563.735 235.357 560.054 235.357C556.426 235.357 553.418 235.855 551.021 236.852C548.682 237.849 546.491 239.198 544.444 240.899C542.456 242.541 540.647 244.476 539.008 246.705C537.374 248.934 536 251.25 534.887 253.655C532.49 258.757 531.291 263.654 531.291 268.346L531.116 307.582C534.685 307.875 537.926 308.345 540.849 308.99C543.829 309.577 545.674 310.309 546.375 311.189C547.075 312.01 547.425 313.037 547.425 314.268C547.425 315.5 546.927 316.526 545.935 317.347C545.001 318.168 543.946 318.579 542.779 318.579H541.904C532.139 316.761 523.403 315.852 515.686 315.852C507.969 315.852 499.287 316.761 489.644 318.579H488.769C487.422 318.579 486.313 318.139 485.438 317.259C484.616 316.321 484.208 315.295 484.208 314.18C484.208 313.007 484.531 312.01 485.173 311.189C485.873 310.309 486.987 309.723 488.504 309.43C490.084 309.078 491.893 308.755 493.94 308.462C496.046 308.169 498.093 307.875 500.077 307.582V202.719L486.573 201.663C485.406 201.487 484.441 200.96 483.682 200.08C482.982 199.2 482.632 198.115 482.632 196.825C482.632 195.476 483.157 194.42 484.208 193.658C485.263 192.895 486.282 192.514 487.278 192.514H487.804C487.862 192.514 488.535 192.602 489.819 192.778C491.108 192.895 492.8 193.042 494.906 193.218C500.4 193.687 505.455 193.922 510.075 193.922C516.503 193.922 521.733 193.452 525.769 192.514H526.645C527.991 192.514 529.1 192.983 529.976 193.922C530.855 194.801 531.291 195.827 531.291 197.001V241.691Z"/>
</mask>
<path d="M119.632 123.634C124.717 124.103 128.839 124.426 131.995 124.602V11.3808C128.195 11.674 124.075 12.1725 119.632 12.8763V123.634ZM200.912 83.6065C202.373 78.5627 203.104 72.3167 203.104 64.8681C203.104 57.361 201.526 50.0007 198.369 42.787C195.213 35.5147 190.858 29.4445 185.305 24.5767C173.906 14.6065 159.205 10.1492 141.202 11.2048V124.602C158.27 125.129 172.796 119.969 184.779 109.118C192.553 102.14 197.931 93.6351 200.912 83.6065ZM110.513 14.4598L96.8352 17.8907C95.4906 17.8907 94.4092 17.4216 93.5908 16.4832C92.7724 15.4862 92.3634 14.4305 92.3634 13.3162C92.3634 10.9703 93.3861 9.50405 95.4323 8.91756C95.6657 8.85891 96.9519 8.47768 99.2899 7.7739C101.687 7.01147 104.872 6.21972 108.847 5.39865C119.252 3.16999 129.657 2.05567 140.062 2.05567C150.525 2.05567 160.14 3.43391 168.909 6.1904C177.677 8.88823 185.276 12.9643 191.706 18.4186C205.442 30.0897 212.31 46.482 212.31 67.5954C212.31 81.5535 208.715 93.7527 201.526 104.192C194.92 113.752 185.655 121.171 173.731 126.449C162.216 131.434 149.502 133.927 135.59 133.927C121.444 133.927 108.584 131.992 97.0102 128.121C94.9645 127.3 93.9414 126.038 93.9414 124.338C93.9414 122.637 94.4383 121.347 95.4323 120.467C96.4257 119.587 97.5072 119.147 98.6762 119.147L110.513 122.226V14.4598ZM263.779 53.432C260.798 53.9009 256.794 54.1355 251.767 54.1355H251.065V120.379C252.176 120.262 253.257 120.203 254.31 120.203C256.414 120.203 258.255 120.203 259.834 120.203C261.412 120.203 262.727 120.262 263.779 120.379V53.432ZM262.727 16.6592C262.727 14.841 262.084 13.3162 260.798 12.0846C259.57 10.7943 258.05 10.1492 256.239 10.1492C254.426 10.1492 252.907 10.7943 251.679 12.0846C250.451 13.3162 249.838 14.841 249.838 16.6592C249.838 18.4772 250.451 20.0021 251.679 21.2337C252.907 22.4653 254.426 23.0812 256.239 23.0812C258.05 23.0812 259.57 22.4653 260.798 21.2337C262.084 20.0021 262.727 18.4772 262.727 16.6592ZM284.647 132.343C275.002 130.408 266 129.44 257.641 129.44C249.282 129.44 240.281 130.408 230.636 132.343C229.291 132.343 228.181 131.845 227.304 130.848C226.486 129.851 226.076 128.795 226.076 127.681C226.076 126.566 226.398 125.569 227.041 124.69C227.742 123.81 228.853 123.223 230.373 122.93C231.951 122.578 233.763 122.285 235.809 122.05C237.913 121.757 239.959 121.464 241.947 121.171V53.7837L228.444 52.6401C227.275 52.464 226.31 51.9361 225.55 51.0564C224.849 50.1768 224.498 49.0917 224.498 47.8017C224.498 46.4527 225.024 45.3969 226.076 44.6344C227.128 43.872 228.152 43.4908 229.145 43.4908H229.671C229.73 43.4908 230.402 43.5788 231.688 43.7547C232.974 43.872 234.64 44.0187 236.686 44.1946C242.239 44.6636 247.324 44.8983 251.942 44.8983C258.372 44.8983 263.574 44.4292 267.549 43.4908H268.514C269.858 43.4908 270.969 43.96 271.845 44.8983C272.723 45.778 273.161 46.8045 273.161 47.9774L272.985 121.171C275.031 121.464 277.077 121.757 279.123 122.05C281.228 122.285 283.098 122.578 284.735 122.93C287.774 123.516 289.294 125.071 289.294 127.593C289.294 128.942 288.797 130.056 287.803 130.936C286.81 131.874 285.758 132.343 284.647 132.343ZM271.933 16.6592C271.933 21.0578 270.413 24.7526 267.374 27.7437C264.217 30.7934 260.506 32.3183 256.239 32.3183C251.913 32.3183 248.23 30.7934 245.191 27.7437C242.151 24.694 240.631 20.9991 240.631 16.6592C240.631 12.3192 242.151 8.62429 245.191 5.57458C248.23 2.52486 251.913 1 256.239 1C260.506 1 264.217 2.52486 267.374 5.57458C270.413 8.56564 271.933 12.2605 271.933 16.6592ZM332.345 54.3116C329.364 54.7805 325.36 55.0152 320.333 55.0152H319.632V121.171C322.554 121.171 325.068 121.171 327.172 121.171C329.335 121.171 331.059 121.229 332.345 121.347V54.3116ZM320.508 45.6023C326.821 45.6023 332.316 45.133 336.993 44.1946C338.337 44.1946 339.447 44.6929 340.324 45.6901C341.26 46.6284 341.727 47.6842 341.727 48.857V57.9182C348.566 47.831 357.948 42.787 369.873 42.787C381.855 42.787 389.659 50.1768 393.283 64.956C394.569 69.9998 395.212 74.8972 395.212 79.6478C395.212 84.3984 395.066 88.5328 394.774 92.0519C394.481 95.512 394.102 98.9722 393.634 102.433C392.816 109.294 391.793 115.218 390.565 120.203C392.786 120.32 395.066 120.438 397.404 120.555C399.801 120.672 401.935 120.819 403.805 120.995C407.195 121.405 408.891 123.135 408.891 126.185C408.773 127.358 408.248 128.355 407.312 129.176C406.377 129.939 405.325 130.32 404.156 130.32H403.805C398.194 129.734 392.056 129.44 385.392 129.44C378.787 129.44 372.591 130.085 366.804 131.375C365.576 131.375 364.495 130.907 363.56 129.968C362.624 128.971 362.157 127.915 362.157 126.801C362.157 125.687 362.508 124.69 363.209 123.81C363.969 122.93 365.225 122.344 366.979 122.05C369.61 121.522 374.286 120.965 381.008 120.379C382.937 113.693 384.252 106.421 384.954 98.5618C385.655 90.6443 386.006 85.2488 386.006 82.3746C386.006 62.0823 380.628 51.9361 369.873 51.9361C362.157 51.9361 355.464 55.4845 349.794 62.5809C344.416 69.2084 341.727 76.1286 341.727 83.3426V83.5182L341.552 122.226C342.604 122.344 343.627 122.461 344.621 122.578C345.614 122.637 346.637 122.754 347.69 122.93C348.8 123.048 349.735 123.546 350.495 124.426C351.314 125.247 351.723 126.273 351.723 127.505C351.723 128.736 351.226 129.821 350.232 130.76C349.297 131.698 348.479 132.167 347.777 132.167C347.075 132.167 346.666 132.079 346.55 131.903C336.028 130.848 328.779 130.32 324.805 130.32C317.03 130.32 310.893 130.73 306.392 131.552C301.891 132.431 299.202 132.871 298.325 132.871C297.507 132.871 296.689 132.373 295.87 131.375C295.052 130.379 294.643 129.323 294.643 128.208C294.643 127.094 294.964 126.097 295.607 125.217C296.25 124.338 297.39 123.751 299.027 123.458C302.3 122.813 306.099 122.285 310.425 121.875V54.6634C302.592 54.3116 298.121 53.9009 297.01 53.432C295.841 53.3144 294.876 52.8158 294.117 51.9361C293.415 51.0564 293.064 49.9714 293.064 48.6814C293.064 47.3909 293.561 46.3351 294.555 45.514C295.549 44.6344 296.367 44.1946 297.01 44.1946C297.712 44.1946 298.091 44.2239 298.15 44.2826C298.267 44.3412 298.968 44.4292 300.254 44.5465C301.54 44.6636 303.206 44.8105 305.252 44.9866C310.104 45.3969 315.189 45.6023 320.508 45.6023ZM448.172 50.8803C437.708 54.9274 430.811 62.5223 427.479 73.6653C426.31 77.5362 425.725 81.9057 425.725 86.7734C425.725 91.6411 426.281 96.0107 427.391 99.8811C428.502 103.752 429.992 107.154 431.863 110.086C435.487 115.54 440.514 119.587 446.944 122.226C441.099 114.074 438.176 102.11 438.176 86.3334C438.176 70.5569 441.508 58.7393 448.172 50.8803ZM492.8 112.637C495.547 109.118 497.622 105.101 499.027 100.585C500.486 96.0692 501.217 91.9051 501.217 88.0932C501.217 84.2808 500.899 80.9085 500.252 77.9763C499.61 75.0436 498.676 72.1992 497.446 69.4426C496.221 66.6865 494.73 64.1056 492.975 61.7012C491.224 59.2964 489.263 57.1853 487.103 55.367C482.367 51.5551 477.195 49.6489 471.584 49.6489C460.244 49.6489 452.846 56.3349 449.399 69.7066C448.113 74.6332 447.47 79.2077 447.47 83.4304C447.47 87.5945 447.587 91.1425 447.821 94.0752C448.054 96.9489 448.464 99.8226 449.048 102.696C449.631 105.511 450.422 108.239 451.414 110.878C452.41 113.517 453.694 115.834 455.274 117.828C458.722 122.168 463.135 124.338 468.513 124.338C473.95 124.338 478.654 123.282 482.632 121.171C486.663 119.001 490.053 116.156 492.8 112.637ZM510.335 87.1252C510.335 93.8698 509.078 100.175 506.569 106.039C504.055 111.904 500.661 116.948 496.396 121.171C487.337 130.027 476.347 134.454 463.427 134.454C449.224 134.454 437.854 130.115 429.32 121.435C420.844 112.813 416.606 101.23 416.606 86.6856C416.606 72.9032 421.107 61.4666 430.109 52.3762C438.994 43.3442 450.098 38.8283 463.427 38.8283C476.989 38.8283 488.27 43.5788 497.271 53.0797C505.981 62.2291 510.335 73.5775 510.335 87.1252ZM41.1578 202.895C40.281 205.651 39.638 208.613 39.2288 211.78C38.8781 214.947 38.5273 217.762 38.1766 220.225L80.5262 303.272C81.3445 301.043 82.2217 298.462 83.1569 295.53L86.3132 286.205L41.1578 202.895ZM144.445 307.23C148.888 306.879 153.389 306.585 157.948 306.351C156.312 282.187 152.366 250.811 146.111 212.22C145.41 207.88 144.855 204.596 144.445 202.367C140.12 202.719 135.327 203.012 130.066 203.247C137.49 234.565 142.283 269.226 144.445 307.23ZM164.174 191.018L164.963 190.843C166.307 190.843 167.418 191.341 168.295 192.338C169.171 193.276 169.61 194.332 169.61 195.505C169.61 196.678 169.23 197.704 168.47 198.584C167.768 199.405 166.892 199.904 165.84 200.08C163.619 200.432 159.614 200.96 153.828 201.663C154.178 204.126 154.704 207.587 155.406 212.044C156.166 216.443 156.955 221.516 157.773 227.263C158.65 232.952 159.556 239.139 160.491 245.825C161.426 252.511 162.332 259.315 163.209 266.235C165.08 281.191 166.366 294.445 167.067 305.999C170.399 305.999 173.292 305.999 175.748 305.999C178.261 305.999 180.219 306.028 181.622 306.087C183.025 306.145 184.136 306.615 184.954 307.494C185.831 308.315 186.269 309.4 186.269 310.749C186.269 312.039 185.802 313.125 184.866 314.004C183.989 314.884 182.85 315.295 181.447 315.236C180.044 315.177 178.583 315.148 177.063 315.148C175.543 315.148 174.023 315.148 172.503 315.148C156.136 315.148 139.769 316.585 123.402 319.459H122.525C121.181 319.459 120.1 318.989 119.281 318.051C118.463 317.172 118.054 316.174 118.054 315.06C118.054 313.946 118.375 312.948 119.018 312.069C119.72 311.189 120.918 310.603 122.613 310.309C126.471 309.547 130.709 308.873 135.327 308.286C132.872 271.162 128.663 239.286 122.701 212.66C114.05 233.832 103.119 264.329 89.9082 304.151C89.9082 304.151 88.9435 307.084 87.0149 312.948C86.2549 315.177 85.8751 316.35 85.8751 316.468C85.2901 318.462 83.8581 319.459 81.5784 319.459C79.591 319.459 78.2173 318.696 77.4577 317.172L34.9324 233.773C30.373 268.2 27.8011 292.627 27.2165 307.055C37.8551 307.524 43.9343 308.726 45.4541 310.661C46.0972 311.482 46.4186 312.567 46.4186 313.916C46.4186 315.207 45.8925 316.233 44.8403 316.995C43.7882 317.699 42.8237 318.051 41.9469 318.051H40.9824C34.2018 316.761 27.8011 316.116 21.7803 316.116C15.7596 316.116 10.6156 316.526 6.34851 317.347H5.64706C4.30264 317.347 3.19202 316.878 2.31521 315.94C1.4384 315.001 1 313.946 1 312.773C1 310.192 2.25676 308.638 4.77027 308.11C7.98525 307.582 12.34 307.172 17.8347 306.879C18.8284 282.187 22.3649 253.215 28.4441 219.961C29.7301 212.748 31.1622 205.68 32.7404 198.76C25.7844 198.525 19.3837 197.587 13.5384 195.945C11.2586 195.3 10.1188 194.068 10.1188 192.25C10.1188 190.432 10.5864 189.083 11.5217 188.203C12.5154 187.323 13.363 186.884 14.0644 186.884H15.3796C15.555 186.884 16.5195 187.119 18.2731 187.587C23.1832 188.936 28.8532 189.611 35.2831 189.611L41.5962 189.435C43.2913 189.435 44.665 190.197 45.7169 191.722L90.4344 274.241C104.931 231.603 114.868 205.68 120.246 196.473C121.122 195.007 122.438 194.273 124.191 194.273L164.174 191.018ZM254.31 287.085C254.076 285.091 253.959 282.979 253.959 280.751H250.715C241.128 280.751 231.717 282.51 222.481 286.029C210.674 290.486 204.77 296.85 204.77 305.119C204.77 308.169 206.143 310.544 208.891 312.245C211.171 313.594 214.152 314.268 217.834 314.268C221.517 314.268 225.199 313.476 228.882 311.893C232.623 310.251 236.072 308.139 239.228 305.559C244.84 300.867 249.867 294.709 254.31 287.085ZM275.44 308.902C275.616 307.143 275.704 303.623 275.704 298.345C275.704 293.067 275.587 288.052 275.353 283.302C275.177 278.493 274.739 273.86 274.038 269.402C273.336 264.945 272.284 260.751 270.881 256.822C269.478 252.893 267.578 249.491 265.182 246.617C259.863 240.283 252.468 237.116 242.999 237.116C242.823 237.116 242.677 237.175 242.56 237.292C242.444 237.351 242.297 237.38 242.122 237.38H242.473C251.884 242.482 257.992 250.957 260.798 262.804C262.376 269.314 263.224 275.501 263.341 281.366C263.516 287.173 263.604 291.747 263.604 295.09C263.604 300.369 263.37 305.676 262.902 311.013C267.111 310.133 271.29 309.43 275.44 308.902ZM290.171 307.934L296.484 308.11C297.77 308.228 298.793 308.726 299.553 309.606C300.371 310.486 300.78 311.571 300.78 312.861C300.78 314.093 300.342 315.177 299.465 316.116C298.647 317.054 297.594 317.523 296.309 317.523H295.958C294.964 317.406 293.941 317.347 292.889 317.347H289.82C279.123 317.347 268.777 318.784 258.781 321.658L257.553 321.834C256.209 321.834 255.099 321.306 254.222 320.25C253.404 319.253 252.994 318.227 252.994 317.172V316.468C252.994 316.35 253.141 315.177 253.433 312.948C253.725 310.661 254.017 307.494 254.31 303.448C242.444 316.761 230.11 323.418 217.308 323.418C211.404 323.418 206.377 321.775 202.227 318.491C197.784 315.031 195.563 310.837 195.563 305.911C195.563 300.984 196.499 296.85 198.369 293.507C200.298 290.164 202.812 287.26 205.91 284.797C209.008 282.276 212.515 280.193 216.431 278.551C220.406 276.85 224.439 275.472 228.531 274.417C236.13 272.54 243.525 271.602 250.715 271.602H252.819C252.819 264.153 250.451 257.643 245.717 252.071C240.69 246.207 234.582 243.274 227.392 243.274C222.014 243.274 216.987 246.031 212.31 251.544C207.751 256.881 205.471 262.482 205.471 268.346C205.471 269.519 204.974 270.517 203.981 271.338C203.045 272.1 201.964 272.481 200.737 272.481C199.509 272.481 198.428 272.012 197.492 271.074C196.557 270.077 196.089 268.581 196.089 266.587C196.089 264.593 196.586 262.071 197.58 259.021C198.574 255.913 200.006 252.893 201.876 249.96C203.805 246.969 206.114 244.154 208.803 241.515C211.55 238.875 214.678 236.53 218.185 234.477C225.667 230.137 233.266 227.967 240.982 227.967C248.756 227.967 254.952 228.993 259.57 231.046C264.246 233.099 268.134 235.885 271.232 239.403C274.388 242.923 276.873 246.998 278.685 251.632C280.497 256.265 281.87 261.162 282.806 266.323C284.267 274.417 284.998 284.768 284.998 297.377L284.823 308.11L290.171 307.934ZM345.059 312.861C341.084 309.4 339.097 305.06 339.097 299.841V198.936L326.558 202.543V289.372C326.558 302.157 330.475 309.664 338.307 311.893C340.529 312.48 342.779 312.802 345.059 312.861ZM348.303 229.023C355.552 228.788 362.829 228.378 370.136 227.791H370.486C371.773 227.791 372.854 228.26 373.731 229.199C374.608 230.078 375.046 231.105 375.046 232.278C375.046 233.451 374.637 234.506 373.818 235.445C373.058 236.324 372.094 236.823 370.925 236.94C361.982 237.644 354.441 238.084 348.303 238.26V299.841C348.303 303.359 350.086 305.852 353.652 307.318C354.645 307.729 355.785 307.934 357.071 307.934C358.416 307.934 359.585 307.524 360.579 306.702C361.63 305.823 362.508 304.738 363.209 303.448C364.144 301.747 364.904 299.753 365.488 297.466C366.365 293.888 368.031 292.099 370.486 292.099C371.831 292.099 372.912 292.627 373.731 293.683C374.608 294.68 375.046 295.706 375.046 296.762V297.729C373.351 305.53 370.019 311.571 365.05 315.852C360.082 320.075 353.944 322.186 346.637 322.186C333.427 322.186 324.512 316.761 319.895 305.911C318.082 301.688 317.177 296.175 317.177 289.372V238.084C314.546 237.908 311.886 237.732 309.198 237.556C306.567 237.38 304.287 237.175 302.358 236.94C298.851 236.588 297.097 235.034 297.097 232.278C297.097 230.929 297.594 229.844 298.588 229.023C299.64 228.201 300.692 227.791 301.745 227.791H302.095L317.177 228.847V198.936C317.177 197.939 317.498 197.03 318.141 196.209C318.784 195.329 319.603 194.743 320.596 194.45L342.516 188.555C342.75 188.379 343.335 188.291 344.27 188.291C345.264 188.291 346.169 188.79 346.988 189.787C347.865 190.784 348.303 191.869 348.303 193.042V229.023ZM420.464 311.541C412.69 303.389 408.803 291.923 408.803 277.144C408.803 267.877 410.323 258.992 413.362 250.488C416.343 242.336 419.733 236.999 423.533 234.477C404.945 239.052 395.651 252.922 395.651 276.088C395.651 289.753 400.385 299.899 409.855 306.527C412.953 308.696 416.49 310.368 420.464 311.541ZM471.669 259.461C471.494 260.634 470.937 261.602 470.004 262.364C469.128 263.127 468.105 263.508 466.933 263.508C465.766 263.508 464.742 263.097 463.867 262.276C463.05 261.455 462.61 260.106 462.551 258.23C462.493 256.294 461.937 253.948 460.886 251.192C459.831 248.435 458.399 245.913 456.59 243.626C452.379 238.348 447.821 235.709 442.911 235.709C436.89 235.709 431.804 238.23 427.654 243.274C422.686 249.315 419.617 257.966 418.448 269.226C418.097 272.217 417.922 275.355 417.922 278.639C417.922 281.865 418.36 285.53 419.237 289.636C420.172 293.741 421.575 297.407 423.446 300.633C427.654 308.022 433.529 311.717 441.07 311.717C446.681 311.717 451.827 309.313 456.5 304.503C460.769 300.105 463.602 295.207 465.007 289.812C465.649 287.29 467.139 286.029 469.478 286.029C470.762 286.029 471.844 286.528 472.724 287.524C473.658 288.463 474.125 289.314 474.125 290.076C474.125 290.838 473.977 291.776 473.685 292.891C473.451 293.947 472.841 295.618 471.844 297.905C470.852 300.193 469.537 302.48 467.898 304.767C466.322 307.055 464.392 309.283 462.112 311.453C459.831 313.565 457.232 315.441 454.309 317.083C447.821 320.72 440.923 322.538 433.616 322.538C426.368 322.538 419.909 321.394 414.239 319.107C408.569 316.878 403.688 313.711 399.596 309.606C390.887 300.984 386.532 289.812 386.532 276.088C386.532 260.839 390.507 248.494 398.457 239.052C406.757 229.14 418.097 224.184 432.477 224.184C439.141 224.184 445.337 225.533 451.064 228.231C456.792 230.87 461.501 234.858 465.182 240.195L468.073 222.249C468.248 221.134 468.747 220.225 469.564 219.522C470.444 218.818 471.526 218.466 472.809 218.466C474.098 218.466 475.148 218.965 475.965 219.961C476.782 220.959 477.195 221.955 477.195 222.953V223.656L471.669 259.461ZM521.998 202.367C519.017 202.836 514.986 203.071 509.9 203.071H509.199V306.879C510.308 306.761 511.39 306.702 512.441 306.702C514.546 306.702 516.387 306.702 517.967 306.702C519.543 306.702 520.889 306.761 521.998 306.879V202.367ZM531.291 241.691C537.957 231.369 547.048 226.207 558.563 226.207C569.903 226.207 578.32 230.342 583.815 238.612C588.547 245.649 590.917 255.033 590.917 266.763C590.917 278.434 589.368 291.63 586.271 306.351C589.952 306.351 592.933 306.527 595.213 306.879C599.07 307.465 601 309.078 601 311.717C601 313.007 600.502 314.122 599.51 315.06C598.513 315.998 597.669 316.468 596.964 316.468C596.264 316.468 595.388 316.35 594.333 316.116C587.029 314.767 577.557 315.119 565.925 317.172C565.809 317.289 565.692 317.347 565.575 317.347C565.459 317.347 565.019 317.347 564.26 317.347C563.56 317.347 562.77 316.878 561.894 315.94C561.014 314.943 560.579 313.887 560.579 312.773C560.579 310.192 561.836 308.638 564.35 308.11C568.498 307.23 572.677 306.702 576.888 306.527C580.103 291.689 581.71 279.021 581.71 268.523C581.71 252.746 577.822 242.57 570.047 237.996C567.066 236.236 563.735 235.357 560.054 235.357C556.426 235.357 553.418 235.855 551.021 236.852C548.682 237.849 546.491 239.198 544.444 240.899C542.456 242.541 540.647 244.476 539.008 246.705C537.374 248.934 536 251.25 534.887 253.655C532.49 258.757 531.291 263.654 531.291 268.346L531.116 307.582C534.685 307.875 537.926 308.345 540.849 308.99C543.829 309.577 545.674 310.309 546.375 311.189C547.075 312.01 547.425 313.037 547.425 314.268C547.425 315.5 546.927 316.526 545.935 317.347C545.001 318.168 543.946 318.579 542.779 318.579H541.904C532.139 316.761 523.403 315.852 515.686 315.852C507.969 315.852 499.287 316.761 489.644 318.579H488.769C487.422 318.579 486.313 318.139 485.438 317.259C484.616 316.321 484.208 315.295 484.208 314.18C484.208 313.007 484.531 312.01 485.173 311.189C485.873 310.309 486.987 309.723 488.504 309.43C490.084 309.078 491.893 308.755 493.94 308.462C496.046 308.169 498.093 307.875 500.077 307.582V202.719L486.573 201.663C485.406 201.487 484.441 200.96 483.682 200.08C482.982 199.2 482.632 198.115 482.632 196.825C482.632 195.476 483.157 194.42 484.208 193.658C485.263 192.895 486.282 192.514 487.278 192.514H487.804C487.862 192.514 488.535 192.602 489.819 192.778C491.108 192.895 492.8 193.042 494.906 193.218C500.4 193.687 505.455 193.922 510.075 193.922C516.503 193.922 521.733 193.452 525.769 192.514H526.645C527.991 192.514 529.1 192.983 529.976 193.922C530.855 194.801 531.291 195.827 531.291 197.001V241.691Z" fill="#41B883"/>
<path d="M119.632 123.634C124.717 124.103 128.839 124.426 131.995 124.602V11.3808C128.195 11.674 124.075 12.1725 119.632 12.8763V123.634ZM200.912 83.6065C202.373 78.5627 203.104 72.3167 203.104 64.8681C203.104 57.361 201.526 50.0007 198.369 42.787C195.213 35.5147 190.858 29.4445 185.305 24.5767C173.906 14.6065 159.205 10.1492 141.202 11.2048V124.602C158.27 125.129 172.796 119.969 184.779 109.118C192.553 102.14 197.931 93.6351 200.912 83.6065ZM110.513 14.4598L96.8352 17.8907C95.4906 17.8907 94.4092 17.4216 93.5908 16.4832C92.7724 15.4862 92.3634 14.4305 92.3634 13.3162C92.3634 10.9703 93.3861 9.50405 95.4323 8.91756C95.6657 8.85891 96.9519 8.47768 99.2899 7.7739C101.687 7.01147 104.872 6.21972 108.847 5.39865C119.252 3.16999 129.657 2.05567 140.062 2.05567C150.525 2.05567 160.14 3.43391 168.909 6.1904C177.677 8.88823 185.276 12.9643 191.706 18.4186C205.442 30.0897 212.31 46.482 212.31 67.5954C212.31 81.5535 208.715 93.7527 201.526 104.192C194.92 113.752 185.655 121.171 173.731 126.449C162.216 131.434 149.502 133.927 135.59 133.927C121.444 133.927 108.584 131.992 97.0102 128.121C94.9645 127.3 93.9414 126.038 93.9414 124.338C93.9414 122.637 94.4383 121.347 95.4323 120.467C96.4257 119.587 97.5072 119.147 98.6762 119.147L110.513 122.226V14.4598ZM263.779 53.432C260.798 53.9009 256.794 54.1355 251.767 54.1355H251.065V120.379C252.176 120.262 253.257 120.203 254.31 120.203C256.414 120.203 258.255 120.203 259.834 120.203C261.412 120.203 262.727 120.262 263.779 120.379V53.432ZM262.727 16.6592C262.727 14.841 262.084 13.3162 260.798 12.0846C259.57 10.7943 258.05 10.1492 256.239 10.1492C254.426 10.1492 252.907 10.7943 251.679 12.0846C250.451 13.3162 249.838 14.841 249.838 16.6592C249.838 18.4772 250.451 20.0021 251.679 21.2337C252.907 22.4653 254.426 23.0812 256.239 23.0812C258.05 23.0812 259.57 22.4653 260.798 21.2337C262.084 20.0021 262.727 18.4772 262.727 16.6592ZM284.647 132.343C275.002 130.408 266 129.44 257.641 129.44C249.282 129.44 240.281 130.408 230.636 132.343C229.291 132.343 228.181 131.845 227.304 130.848C226.486 129.851 226.076 128.795 226.076 127.681C226.076 126.566 226.398 125.569 227.041 124.69C227.742 123.81 228.853 123.223 230.373 122.93C231.951 122.578 233.763 122.285 235.809 122.05C237.913 121.757 239.959 121.464 241.947 121.171V53.7837L228.444 52.6401C227.275 52.464 226.31 51.9361 225.55 51.0564C224.849 50.1768 224.498 49.0917 224.498 47.8017C224.498 46.4527 225.024 45.3969 226.076 44.6344C227.128 43.872 228.152 43.4908 229.145 43.4908H229.671C229.73 43.4908 230.402 43.5788 231.688 43.7547C232.974 43.872 234.64 44.0187 236.686 44.1946C242.239 44.6636 247.324 44.8983 251.942 44.8983C258.372 44.8983 263.574 44.4292 267.549 43.4908H268.514C269.858 43.4908 270.969 43.96 271.845 44.8983C272.723 45.778 273.161 46.8045 273.161 47.9774L272.985 121.171C275.031 121.464 277.077 121.757 279.123 122.05C281.228 122.285 283.098 122.578 284.735 122.93C287.774 123.516 289.294 125.071 289.294 127.593C289.294 128.942 288.797 130.056 287.803 130.936C286.81 131.874 285.758 132.343 284.647 132.343ZM271.933 16.6592C271.933 21.0578 270.413 24.7526 267.374 27.7437C264.217 30.7934 260.506 32.3183 256.239 32.3183C251.913 32.3183 248.23 30.7934 245.191 27.7437C242.151 24.694 240.631 20.9991 240.631 16.6592C240.631 12.3192 242.151 8.62429 245.191 5.57458C248.23 2.52486 251.913 1 256.239 1C260.506 1 264.217 2.52486 267.374 5.57458C270.413 8.56564 271.933 12.2605 271.933 16.6592ZM332.345 54.3116C329.364 54.7805 325.36 55.0152 320.333 55.0152H319.632V121.171C322.554 121.171 325.068 121.171 327.172 121.171C329.335 121.171 331.059 121.229 332.345 121.347V54.3116ZM320.508 45.6023C326.821 45.6023 332.316 45.133 336.993 44.1946C338.337 44.1946 339.447 44.6929 340.324 45.6901C341.26 46.6284 341.727 47.6842 341.727 48.857V57.9182C348.566 47.831 357.948 42.787 369.873 42.787C381.855 42.787 389.659 50.1768 393.283 64.956C394.569 69.9998 395.212 74.8972 395.212 79.6478C395.212 84.3984 395.066 88.5328 394.774 92.0519C394.481 95.512 394.102 98.9722 393.634 102.433C392.816 109.294 391.793 115.218 390.565 120.203C392.786 120.32 395.066 120.438 397.404 120.555C399.801 120.672 401.935 120.819 403.805 120.995C407.195 121.405 408.891 123.135 408.891 126.185C408.773 127.358 408.248 128.355 407.312 129.176C406.377 129.939 405.325 130.32 404.156 130.32H403.805C398.194 129.734 392.056 129.44 385.392 129.44C378.787 129.44 372.591 130.085 366.804 131.375C365.576 131.375 364.495 130.907 363.56 129.968C362.624 128.971 362.157 127.915 362.157 126.801C362.157 125.687 362.508 124.69 363.209 123.81C363.969 122.93 365.225 122.344 366.979 122.05C369.61 121.522 374.286 120.965 381.008 120.379C382.937 113.693 384.252 106.421 384.954 98.5618C385.655 90.6443 386.006 85.2488 386.006 82.3746C386.006 62.0823 380.628 51.9361 369.873 51.9361C362.157 51.9361 355.464 55.4845 349.794 62.5809C344.416 69.2084 341.727 76.1286 341.727 83.3426V83.5182L341.552 122.226C342.604 122.344 343.627 122.461 344.621 122.578C345.614 122.637 346.637 122.754 347.69 122.93C348.8 123.048 349.735 123.546 350.495 124.426C351.314 125.247 351.723 126.273 351.723 127.505C351.723 128.736 351.226 129.821 350.232 130.76C349.297 131.698 348.479 132.167 347.777 132.167C347.075 132.167 346.666 132.079 346.55 131.903C336.028 130.848 328.779 130.32 324.805 130.32C317.03 130.32 310.893 130.73 306.392 131.552C301.891 132.431 299.202 132.871 298.325 132.871C297.507 132.871 296.689 132.373 295.87 131.375C295.052 130.379 294.643 129.323 294.643 128.208C294.643 127.094 294.964 126.097 295.607 125.217C296.25 124.338 297.39 123.751 299.027 123.458C302.3 122.813 306.099 122.285 310.425 121.875V54.6634C302.592 54.3116 298.121 53.9009 297.01 53.432C295.841 53.3144 294.876 52.8158 294.117 51.9361C293.415 51.0564 293.064 49.9714 293.064 48.6814C293.064 47.3909 293.561 46.3351 294.555 45.514C295.549 44.6344 296.367 44.1946 297.01 44.1946C297.712 44.1946 298.091 44.2239 298.15 44.2826C298.267 44.3412 298.968 44.4292 300.254 44.5465C301.54 44.6636 303.206 44.8105 305.252 44.9866C310.104 45.3969 315.189 45.6023 320.508 45.6023ZM448.172 50.8803C437.708 54.9274 430.811 62.5223 427.479 73.6653C426.31 77.5362 425.725 81.9057 425.725 86.7734C425.725 91.6411 426.281 96.0107 427.391 99.8811C428.502 103.752 429.992 107.154 431.863 110.086C435.487 115.54 440.514 119.587 446.944 122.226C441.099 114.074 438.176 102.11 438.176 86.3334C438.176 70.5569 441.508 58.7393 448.172 50.8803ZM492.8 112.637C495.547 109.118 497.622 105.101 499.027 100.585C500.486 96.0692 501.217 91.9051 501.217 88.0932C501.217 84.2808 500.899 80.9085 500.252 77.9763C499.61 75.0436 498.676 72.1992 497.446 69.4426C496.221 66.6865 494.73 64.1056 492.975 61.7012C491.224 59.2964 489.263 57.1853 487.103 55.367C482.367 51.5551 477.195 49.6489 471.584 49.6489C460.244 49.6489 452.846 56.3349 449.399 69.7066C448.113 74.6332 447.47 79.2077 447.47 83.4304C447.47 87.5945 447.587 91.1425 447.821 94.0752C448.054 96.9489 448.464 99.8226 449.048 102.696C449.631 105.511 450.422 108.239 451.414 110.878C452.41 113.517 453.694 115.834 455.274 117.828C458.722 122.168 463.135 124.338 468.513 124.338C473.95 124.338 478.654 123.282 482.632 121.171C486.663 119.001 490.053 116.156 492.8 112.637ZM510.335 87.1252C510.335 93.8698 509.078 100.175 506.569 106.039C504.055 111.904 500.661 116.948 496.396 121.171C487.337 130.027 476.347 134.454 463.427 134.454C449.224 134.454 437.854 130.115 429.32 121.435C420.844 112.813 416.606 101.23 416.606 86.6856C416.606 72.9032 421.107 61.4666 430.109 52.3762C438.994 43.3442 450.098 38.8283 463.427 38.8283C476.989 38.8283 488.27 43.5788 497.271 53.0797C505.981 62.2291 510.335 73.5775 510.335 87.1252ZM41.1578 202.895C40.281 205.651 39.638 208.613 39.2288 211.78C38.8781 214.947 38.5273 217.762 38.1766 220.225L80.5262 303.272C81.3445 301.043 82.2217 298.462 83.1569 295.53L86.3132 286.205L41.1578 202.895ZM144.445 307.23C148.888 306.879 153.389 306.585 157.948 306.351C156.312 282.187 152.366 250.811 146.111 212.22C145.41 207.88 144.855 204.596 144.445 202.367C140.12 202.719 135.327 203.012 130.066 203.247C137.49 234.565 142.283 269.226 144.445 307.23ZM164.174 191.018L164.963 190.843C166.307 190.843 167.418 191.341 168.295 192.338C169.171 193.276 169.61 194.332 169.61 195.505C169.61 196.678 169.23 197.704 168.47 198.584C167.768 199.405 166.892 199.904 165.84 200.08C163.619 200.432 159.614 200.96 153.828 201.663C154.178 204.126 154.704 207.587 155.406 212.044C156.166 216.443 156.955 221.516 157.773 227.263C158.65 232.952 159.556 239.139 160.491 245.825C161.426 252.511 162.332 259.315 163.209 266.235C165.08 281.191 166.366 294.445 167.067 305.999C170.399 305.999 173.292 305.999 175.748 305.999C178.261 305.999 180.219 306.028 181.622 306.087C183.025 306.145 184.136 306.615 184.954 307.494C185.831 308.315 186.269 309.4 186.269 310.749C186.269 312.039 185.802 313.125 184.866 314.004C183.989 314.884 182.85 315.295 181.447 315.236C180.044 315.177 178.583 315.148 177.063 315.148C175.543 315.148 174.023 315.148 172.503 315.148C156.136 315.148 139.769 316.585 123.402 319.459H122.525C121.181 319.459 120.1 318.989 119.281 318.051C118.463 317.172 118.054 316.174 118.054 315.06C118.054 313.946 118.375 312.948 119.018 312.069C119.72 311.189 120.918 310.603 122.613 310.309C126.471 309.547 130.709 308.873 135.327 308.286C132.872 271.162 128.663 239.286 122.701 212.66C114.05 233.832 103.119 264.329 89.9082 304.151C89.9082 304.151 88.9435 307.084 87.0149 312.948C86.2549 315.177 85.8751 316.35 85.8751 316.468C85.2901 318.462 83.8581 319.459 81.5784 319.459C79.591 319.459 78.2173 318.696 77.4577 317.172L34.9324 233.773C30.373 268.2 27.8011 292.627 27.2165 307.055C37.8551 307.524 43.9343 308.726 45.4541 310.661C46.0972 311.482 46.4186 312.567 46.4186 313.916C46.4186 315.207 45.8925 316.233 44.8403 316.995C43.7882 317.699 42.8237 318.051 41.9469 318.051H40.9824C34.2018 316.761 27.8011 316.116 21.7803 316.116C15.7596 316.116 10.6156 316.526 6.34851 317.347H5.64706C4.30264 317.347 3.19202 316.878 2.31521 315.94C1.4384 315.001 1 313.946 1 312.773C1 310.192 2.25676 308.638 4.77027 308.11C7.98525 307.582 12.34 307.172 17.8347 306.879C18.8284 282.187 22.3649 253.215 28.4441 219.961C29.7301 212.748 31.1622 205.68 32.7404 198.76C25.7844 198.525 19.3837 197.587 13.5384 195.945C11.2586 195.3 10.1188 194.068 10.1188 192.25C10.1188 190.432 10.5864 189.083 11.5217 188.203C12.5154 187.323 13.363 186.884 14.0644 186.884H15.3796C15.555 186.884 16.5195 187.119 18.2731 187.587C23.1832 188.936 28.8532 189.611 35.2831 189.611L41.5962 189.435C43.2913 189.435 44.665 190.197 45.7169 191.722L90.4344 274.241C104.931 231.603 114.868 205.68 120.246 196.473C121.122 195.007 122.438 194.273 124.191 194.273L164.174 191.018ZM254.31 287.085C254.076 285.091 253.959 282.979 253.959 280.751H250.715C241.128 280.751 231.717 282.51 222.481 286.029C210.674 290.486 204.77 296.85 204.77 305.119C204.77 308.169 206.143 310.544 208.891 312.245C211.171 313.594 214.152 314.268 217.834 314.268C221.517 314.268 225.199 313.476 228.882 311.893C232.623 310.251 236.072 308.139 239.228 305.559C244.84 300.867 249.867 294.709 254.31 287.085ZM275.44 308.902C275.616 307.143 275.704 303.623 275.704 298.345C275.704 293.067 275.587 288.052 275.353 283.302C275.177 278.493 274.739 273.86 274.038 269.402C273.336 264.945 272.284 260.751 270.881 256.822C269.478 252.893 267.578 249.491 265.182 246.617C259.863 240.283 252.468 237.116 242.999 237.116C242.823 237.116 242.677 237.175 242.56 237.292C242.444 237.351 242.297 237.38 242.122 237.38H242.473C251.884 242.482 257.992 250.957 260.798 262.804C262.376 269.314 263.224 275.501 263.341 281.366C263.516 287.173 263.604 291.747 263.604 295.09C263.604 300.369 263.37 305.676 262.902 311.013C267.111 310.133 271.29 309.43 275.44 308.902ZM290.171 307.934L296.484 308.11C297.77 308.228 298.793 308.726 299.553 309.606C300.371 310.486 300.78 311.571 300.78 312.861C300.78 314.093 300.342 315.177 299.465 316.116C298.647 317.054 297.594 317.523 296.309 317.523H295.958C294.964 317.406 293.941 317.347 292.889 317.347H289.82C279.123 317.347 268.777 318.784 258.781 321.658L257.553 321.834C256.209 321.834 255.099 321.306 254.222 320.25C253.404 319.253 252.994 318.227 252.994 317.172V316.468C252.994 316.35 253.141 315.177 253.433 312.948C253.725 310.661 254.017 307.494 254.31 303.448C242.444 316.761 230.11 323.418 217.308 323.418C211.404 323.418 206.377 321.775 202.227 318.491C197.784 315.031 195.563 310.837 195.563 305.911C195.563 300.984 196.499 296.85 198.369 293.507C200.298 290.164 202.812 287.26 205.91 284.797C209.008 282.276 212.515 280.193 216.431 278.551C220.406 276.85 224.439 275.472 228.531 274.417C236.13 272.54 243.525 271.602 250.715 271.602H252.819C252.819 264.153 250.451 257.643 245.717 252.071C240.69 246.207 234.582 243.274 227.392 243.274C222.014 243.274 216.987 246.031 212.31 251.544C207.751 256.881 205.471 262.482 205.471 268.346C205.471 269.519 204.974 270.517 203.981 271.338C203.045 272.1 201.964 272.481 200.737 272.481C199.509 272.481 198.428 272.012 197.492 271.074C196.557 270.077 196.089 268.581 196.089 266.587C196.089 264.593 196.586 262.071 197.58 259.021C198.574 255.913 200.006 252.893 201.876 249.96C203.805 246.969 206.114 244.154 208.803 241.515C211.55 238.875 214.678 236.53 218.185 234.477C225.667 230.137 233.266 227.967 240.982 227.967C248.756 227.967 254.952 228.993 259.57 231.046C264.246 233.099 268.134 235.885 271.232 239.403C274.388 242.923 276.873 246.998 278.685 251.632C280.497 256.265 281.87 261.162 282.806 266.323C284.267 274.417 284.998 284.768 284.998 297.377L284.823 308.11L290.171 307.934ZM345.059 312.861C341.084 309.4 339.097 305.06 339.097 299.841V198.936L326.558 202.543V289.372C326.558 302.157 330.475 309.664 338.307 311.893C340.529 312.48 342.779 312.802 345.059 312.861ZM348.303 229.023C355.552 228.788 362.829 228.378 370.136 227.791H370.486C371.773 227.791 372.854 228.26 373.731 229.199C374.608 230.078 375.046 231.105 375.046 232.278C375.046 233.451 374.637 234.506 373.818 235.445C373.058 236.324 372.094 236.823 370.925 236.94C361.982 237.644 354.441 238.084 348.303 238.26V299.841C348.303 303.359 350.086 305.852 353.652 307.318C354.645 307.729 355.785 307.934 357.071 307.934C358.416 307.934 359.585 307.524 360.579 306.702C361.63 305.823 362.508 304.738 363.209 303.448C364.144 301.747 364.904 299.753 365.488 297.466C366.365 293.888 368.031 292.099 370.486 292.099C371.831 292.099 372.912 292.627 373.731 293.683C374.608 294.68 375.046 295.706 375.046 296.762V297.729C373.351 305.53 370.019 311.571 365.05 315.852C360.082 320.075 353.944 322.186 346.637 322.186C333.427 322.186 324.512 316.761 319.895 305.911C318.082 301.688 317.177 296.175 317.177 289.372V238.084C314.546 237.908 311.886 237.732 309.198 237.556C306.567 237.38 304.287 237.175 302.358 236.94C298.851 236.588 297.097 235.034 297.097 232.278C297.097 230.929 297.594 229.844 298.588 229.023C299.64 228.201 300.692 227.791 301.745 227.791H302.095L317.177 228.847V198.936C317.177 197.939 317.498 197.03 318.141 196.209C318.784 195.329 319.603 194.743 320.596 194.45L342.516 188.555C342.75 188.379 343.335 188.291 344.27 188.291C345.264 188.291 346.169 188.79 346.988 189.787C347.865 190.784 348.303 191.869 348.303 193.042V229.023ZM420.464 311.541C412.69 303.389 408.803 291.923 408.803 277.144C408.803 267.877 410.323 258.992 413.362 250.488C416.343 242.336 419.733 236.999 423.533 234.477C404.945 239.052 395.651 252.922 395.651 276.088C395.651 289.753 400.385 299.899 409.855 306.527C412.953 308.696 416.49 310.368 420.464 311.541ZM471.669 259.461C471.494 260.634 470.937 261.602 470.004 262.364C469.128 263.127 468.105 263.508 466.933 263.508C465.766 263.508 464.742 263.097 463.867 262.276C463.05 261.455 462.61 260.106 462.551 258.23C462.493 256.294 461.937 253.948 460.886 251.192C459.831 248.435 458.399 245.913 456.59 243.626C452.379 238.348 447.821 235.709 442.911 235.709C436.89 235.709 431.804 238.23 427.654 243.274C422.686 249.315 419.617 257.966 418.448 269.226C418.097 272.217 417.922 275.355 417.922 278.639C417.922 281.865 418.36 285.53 419.237 289.636C420.172 293.741 421.575 297.407 423.446 300.633C427.654 308.022 433.529 311.717 441.07 311.717C446.681 311.717 451.827 309.313 456.5 304.503C460.769 300.105 463.602 295.207 465.007 289.812C465.649 287.29 467.139 286.029 469.478 286.029C470.762 286.029 471.844 286.528 472.724 287.524C473.658 288.463 474.125 289.314 474.125 290.076C474.125 290.838 473.977 291.776 473.685 292.891C473.451 293.947 472.841 295.618 471.844 297.905C470.852 300.193 469.537 302.48 467.898 304.767C466.322 307.055 464.392 309.283 462.112 311.453C459.831 313.565 457.232 315.441 454.309 317.083C447.821 320.72 440.923 322.538 433.616 322.538C426.368 322.538 419.909 321.394 414.239 319.107C408.569 316.878 403.688 313.711 399.596 309.606C390.887 300.984 386.532 289.812 386.532 276.088C386.532 260.839 390.507 248.494 398.457 239.052C406.757 229.14 418.097 224.184 432.477 224.184C439.141 224.184 445.337 225.533 451.064 228.231C456.792 230.87 461.501 234.858 465.182 240.195L468.073 222.249C468.248 221.134 468.747 220.225 469.564 219.522C470.444 218.818 471.526 218.466 472.809 218.466C474.098 218.466 475.148 218.965 475.965 219.961C476.782 220.959 477.195 221.955 477.195 222.953V223.656L471.669 259.461ZM521.998 202.367C519.017 202.836 514.986 203.071 509.9 203.071H509.199V306.879C510.308 306.761 511.39 306.702 512.441 306.702C514.546 306.702 516.387 306.702 517.967 306.702C519.543 306.702 520.889 306.761 521.998 306.879V202.367ZM531.291 241.691C537.957 231.369 547.048 226.207 558.563 226.207C569.903 226.207 578.32 230.342 583.815 238.612C588.547 245.649 590.917 255.033 590.917 266.763C590.917 278.434 589.368 291.63 586.271 306.351C589.952 306.351 592.933 306.527 595.213 306.879C599.07 307.465 601 309.078 601 311.717C601 313.007 600.502 314.122 599.51 315.06C598.513 315.998 597.669 316.468 596.964 316.468C596.264 316.468 595.388 316.35 594.333 316.116C587.029 314.767 577.557 315.119 565.925 317.172C565.809 317.289 565.692 317.347 565.575 317.347C565.459 317.347 565.019 317.347 564.26 317.347C563.56 317.347 562.77 316.878 561.894 315.94C561.014 314.943 560.579 313.887 560.579 312.773C560.579 310.192 561.836 308.638 564.35 308.11C568.498 307.23 572.677 306.702 576.888 306.527C580.103 291.689 581.71 279.021 581.71 268.523C581.71 252.746 577.822 242.57 570.047 237.996C567.066 236.236 563.735 235.357 560.054 235.357C556.426 235.357 553.418 235.855 551.021 236.852C548.682 237.849 546.491 239.198 544.444 240.899C542.456 242.541 540.647 244.476 539.008 246.705C537.374 248.934 536 251.25 534.887 253.655C532.49 258.757 531.291 263.654 531.291 268.346L531.116 307.582C534.685 307.875 537.926 308.345 540.849 308.99C543.829 309.577 545.674 310.309 546.375 311.189C547.075 312.01 547.425 313.037 547.425 314.268C547.425 315.5 546.927 316.526 545.935 317.347C545.001 318.168 543.946 318.579 542.779 318.579H541.904C532.139 316.761 523.403 315.852 515.686 315.852C507.969 315.852 499.287 316.761 489.644 318.579H488.769C487.422 318.579 486.313 318.139 485.438 317.259C484.616 316.321 484.208 315.295 484.208 314.18C484.208 313.007 484.531 312.01 485.173 311.189C485.873 310.309 486.987 309.723 488.504 309.43C490.084 309.078 491.893 308.755 493.94 308.462C496.046 308.169 498.093 307.875 500.077 307.582V202.719L486.573 201.663C485.406 201.487 484.441 200.96 483.682 200.08C482.982 199.2 482.632 198.115 482.632 196.825C482.632 195.476 483.157 194.42 484.208 193.658C485.263 192.895 486.282 192.514 487.278 192.514H487.804C487.862 192.514 488.535 192.602 489.819 192.778C491.108 192.895 492.8 193.042 494.906 193.218C500.4 193.687 505.455 193.922 510.075 193.922C516.503 193.922 521.733 193.452 525.769 192.514H526.645C527.991 192.514 529.1 192.983 529.976 193.922C530.855 194.801 531.291 195.827 531.291 197.001V241.691Z" stroke="#41B883" stroke-width="2" mask="url(#path-1-outside-1)"/>
</svg>
